<svg width="222" height="40" viewBox="0 0 222 40" fill="none" xmlns="http://www.w3.org/2000/svg">
<g clip-path="url(#clip0_388_15222)">
<path d="M32.4695 1.9624V14.2958L22.862 20.2958V11.5777H9.61948V20.1498L6.38818 18.1385V8.34637H26.0947V11.6949H24.8227L27.5569 14.7549L30.2617 11.6949H29.2368V5.19511H3.2327V19.3705L13.7402 25.9279L10.921 27.6752L0 21.1649V1.9624H32.4695Z" fill="#35C66B"/>
<path d="M32.477 17.3425V28.8441L16.0587 38.9844L13.17 37.1536L29.2843 27.0343L29.8558 27.8613L30.8189 23.8739L26.7656 23.3867L27.4156 24.3288L10.0756 35.1866L10.0433 35.207L0.020874 28.7998V24.9662L10.0601 31.3811L32.477 17.3425Z" fill="#35C66B"/>
<path d="M12.4281 15.594V21.462L16.4049 23.9548L20.4856 21.3848L20.4884 15.594H12.4281Z" fill="#FDB81E"/>
<path d="M49.1701 25.2192C48.5765 25.2192 48.2772 24.9529 48.2772 24.426V17.5163C48.2772 17.0021 48.5765 16.7445 49.1701 16.7445H67.1858V13.0635H49.1701C45.9889 13.0635 44.3997 14.3495 44.3997 16.9227V25.0197C44.3997 27.6073 45.9889 28.9002 49.1701 28.9002H67.243V25.2192H49.1701Z" fill="#35C66B"/>
<path d="M86.9594 22.3681H88.2881C91.3358 22.3681 92.8581 21.0307 92.8581 18.3482V16.9227C92.8581 14.3495 91.3358 13.0635 88.2881 13.0635H69.2227V28.8992H73.1032V22.5638H82.0204L88.168 28.8992H93.5138L86.9594 22.3681ZM73.1032 19.2808V16.7445H88.2881C88.8818 16.7445 89.1781 16.9536 89.1781 17.3652V18.6426C89.1781 19.0668 88.9205 19.2808 88.4063 19.2808H73.1032Z" fill="#35C66B"/>
<path d="M109.112 13.0635L103.095 20.6066L97.1753 13.0635H92.7021L101.274 23.6145V28.8992H105.154V23.5361L113.569 13.0635H109.112Z" fill="#35C66B"/>
<path d="M138.865 13.0635C138.287 13.0635 137.755 13.1206 137.273 13.23C136.792 13.3453 136.35 13.5206 135.947 13.7656C135.545 14.0106 135.179 14.3253 134.848 14.7156C134.518 15.1059 134.206 15.5843 133.916 16.1499L128.661 25.2182L123.425 16.0927C123.146 15.5359 122.847 15.0701 122.523 14.6856C122.2 14.304 121.842 13.9893 121.445 13.7472C121.049 13.5022 120.604 13.3269 120.108 13.2204C119.615 13.1148 119.051 13.0625 118.416 13.0625H114.557V28.8982H118.238V16.7425H118.437C118.701 16.7425 118.958 16.8394 119.209 17.0301C119.46 17.2209 119.645 17.4359 119.763 17.6751L125.583 28.8982H131.779L137.578 17.6751C137.699 17.4359 137.878 17.2209 138.124 17.0301C138.369 16.8394 138.623 16.7425 138.887 16.7425H139.083V28.8982H142.767V13.0625H138.865V13.0635Z" fill="#35C66B"/>
<path d="M160.783 14.3892C160.268 13.5051 159.463 13.0635 158.367 13.0635H154.366C154.011 13.0635 153.715 13.0935 153.476 13.1516C153.24 13.2126 153.034 13.2969 152.862 13.4092C152.692 13.5215 152.544 13.66 152.417 13.8266C152.293 13.9903 152.172 14.1868 152.051 14.4106L143.758 28.8992H148.222L153.543 19.3137L153.567 19.2682L154.565 17.4979C154.84 16.9953 155.192 16.7445 155.616 16.7445H157.138C157.323 16.7445 157.505 16.8016 157.684 16.914C157.862 17.0263 158.023 17.2132 158.168 17.4766L158.8 18.5845L158.855 18.6842L164.602 28.8992H169.058L160.783 14.3892Z" fill="#35C66B"/>
<path d="M188.555 13.0635H170.047V28.8992H188.555C192.527 28.8992 194.512 27.2229 194.512 23.8721V18.1119C194.512 14.7466 192.527 13.0635 188.555 13.0635ZM190.635 23.8721C190.635 24.7679 189.942 25.2192 188.559 25.2192H173.927V16.7445H188.558C189.941 16.7445 190.634 17.2016 190.634 18.1129V23.8721H190.635Z" fill="#35C66B"/>
<path d="M211.181 20.4061L219.08 13.0635H213.717L207.836 18.9021H206.392L200.511 13.0635H195.147L203.044 20.4061L194.554 28.8992H199.896L206.134 22.4853H208.092L214.327 28.8992H219.673L211.181 20.4061Z" fill="#35C66B"/>
<path d="M98.5843 13.0635L103.135 19.0338L107.897 13.0635H98.5843Z" fill="#FDB81E"/>
<path d="M163.361 28.9138L158.225 19.6421L158.187 19.5675L157.56 18.4771C157.446 18.2698 157.356 18.1933 157.309 18.1623C157.244 18.1216 157.185 18.1003 157.131 18.1003H155.646C155.581 18.1003 155.409 18.1003 155.188 18.5061L154.219 20.2222L149.455 28.9148H163.361V28.9138Z" fill="#FDB81E"/>
</g>
<defs>
<clipPath id="clip0_388_15222">
<rect width="222" height="38.85" fill="white" transform="translate(0 0.574951)"/>
</clipPath>
</defs>
</svg>
